# xmcd
#
# Track frame offsets:
#	182
#	36472
#	65337
#	97327
#	133917
#	159675
#
# Disc length: 2622 seconds
#
# Revision: 0
# Processed by: cddbd v1.5.1PL2 Copyright (c) Steve Scherf et al.
# Submitted via: dBpowerAMP V4.0
#
DISCID=5a0a3c06
DTITLE=Diversus - Country and Western (Red Valley Riders)
DYEAR=1900
DGENRE=Country
TTITLE0=Eyes On The Road-Gotta Travel On-Keep On Truckin'-On The Road Again-I'm Walking
TTITLE1=Country Romance-Born To Lose-Release Me-Stand By Your Man
TTITLE2=Favourites-Car Car-This Ole House-Riders In The Sky-Ole Dan
TTITLE3=Travelin' USA-Southern Nights-Mississipi-Memphis Tennessee-North To Alaska
TTITLE4=County Morings-Where Have All The Flowers Gone-Early Mornin' Rain-Don't Think Twice It's All Right
TTITLE5=Lovin' Girls-Blue Jean Susy-Angela Jones-Good Night Irene-Hello Mary Lou (Goodbye Heart)
EXTD=Country and Western (Red Valley Riders)
EXTT0=
EXTT1=
EXTT2=
EXTT3=
EXTT4=
EXTT5=
PLAYORDER=
